<svg id="Layer_2" height="512" viewBox="0 0 32 32" width="512" xmlns="http://www.w3.org/2000/svg" xmlns:xlink="http://www.w3.org/1999/xlink" data-name="Layer 2"><linearGradient id="linear-gradient" gradientUnits="userSpaceOnUse" x1="4.999" x2="23.977" y1="28.301" y2="7.081"><stop offset="0" stop-color="#00ed95"/><stop offset="1" stop-color="#00aaef"/></linearGradient><path d="m16 1.5a14.5 14.5 0 1 0 14.5 14.5 14.517 14.517 0 0 0 -14.5-14.5zm-.5 5.5a.5.5 0 0 1 1 0v9a.5.5 0 0 1 -1 0zm.5 18.5a9.5 9.5 0 0 1 -3.8-18.209.5.5 0 1 1 .4.916 8.5 8.5 0 1 0 6.8 0 .5.5 0 0 1 .4-.916 9.5 9.5 0 0 1 -3.8 18.209z" fill="url(#linear-gradient)"/></svg>